<svg id="Capa_1" enable-background="new 0 0 496.977 496.977" height="512" viewBox="0 0 496.977 496.977" width="512" xmlns="http://www.w3.org/2000/svg"><g id="_x3C_Group_x3E__38_"><path d="m70.169 193.359c0-65.527 23.631-123.306 70.558-158.311 29.606-22.084 66.422-35.048 107.761-35.048 106.867 0 183.5 86.633 183.5 193.5 0 124.521-110.943 240.293-160.38 285.007-9.688 8.763-14.424 9.719-18.09 12.555-1.441 1.115-3.437 1.115-4.878 0-22.373-17.305-178.471-148.779-178.471-297.703z" fill="#d5717f"/><path d="m388.488 187.487c0 40.255-16.99 76.543-44.191 102.082-25.044 23.515-57.819 33.833-94.884 33.833-77.32 0-139.074-58.595-139.074-135.915 0-35.177 11.122-67.323 32.546-91.916 25.666-29.463 63.46-48.084 105.603-48.084 77.32 0 140 62.68 140 140z" fill="#f5fcff"/><path d="m300.96 243.564h-104.943v-148.511c0-2.761 2.239-5 5-5h94.943c2.761 0 5 2.239 5 5z" fill="#bed9fd"/><path d="m271.608 478.507c-9.69 8.76-17.02 14.79-20.68 17.63-1.44 1.12-3.44 1.12-4.88 0-22.37-17.3-181.06-153.71-181.06-302.64 0-72.36 35.14-135.45 91.01-168.64-41.15 35.47-66.01 89.77-66.01 150.64 0 148.93 158.69 285.34 181.06 302.64.18.14.37.26.56.37z" fill="#cd5668"/><path d="m355.168 278.167c-25.69 30.18-63.95 49.32-106.68 49.32-77.32 0-140-62.68-140-140 0-42.73 19.14-80.99 49.32-106.68-20.78 24.43-33.32 56.09-33.32 90.68 0 77.32 62.68 140 140 140 34.591 0 66.25-12.54 90.68-33.32z" fill="#e6f7fe"/><path d="m295.96 82.553h-94.943c-6.893 0-11.103 5.53-11.103 12.423l.979 25.204v30l.255 29.987 2.17 31.787-3.032 40.154c0 4.143 3.357 7.5 7.5 7.5l33.212 1.455h34.98 34.981c4.143 0 3.039-4.243 3.039-8.386l4.461-11.111v-31.259-30-30.127-30-25.127c.001-6.892-5.606-12.5-12.499-12.5zm-3.5 120.255h-17.981c-.552 0-1-.448-1-1v-13c0-.552.448-1 1-1h17.981c.552 0 1 .448 1 1v13c0 .552-.448 1-1 1zm-87.943-45.128h17.981c.552 0 1 .448 1 1v13.128c0 .552-.448 1-1 1h-17.981c-.552 0-1-.448-1-1v-13.128c0-.552.447-1 1-1zm0-30h17.981c.552 0 1 .448 1 1v13c0 .552-.448 1-1 1h-17.981c-.552 0-1-.448-1-1v-13c0-.552.447-1 1-1zm0 60.128h17.981c.552 0 1 .448 1 1v13c0 .552-.448 1-1 1h-17.981c-.552 0-1-.448-1-1v-13c0-.552.447-1 1-1zm34.981-60.128h17.98c.552 0 1 .448 1 1v13c0 .552-.448 1-1 1h-17.98c-.552 0-1-.448-1-1v-13c0-.552.448-1 1-1zm52.962 15h-17.981c-.552 0-1-.448-1-1v-13c0-.552.448-1 1-1h17.981c.552 0 1 .448 1 1v13c0 .553-.448 1-1 1zm-18.981 29.128v-13.128c0-.552.448-1 1-1h17.981c.552 0 1 .448 1 1v13.128c0 .552-.448 1-1 1h-17.981c-.553 0-1-.448-1-1zm19.981-73.255v13.127c0 .552-.448 1-1 1h-26.481-34.98-26.481c-.552 0-1-.448-1-1v-13.127c0-.552.448-1 1-1h87.943c.551 0 .999.448.999 1zm-88.943 119.255h17.981c.552 0 1 .448 1 1v16.256c0 .552-.448 1-1 1h-17.981c-.552 0-1-.448-1-1v-16.256c0-.552.447-1 1-1zm34.981 18.256c-.552 0-1-.448-1-1v-24.756-30-21.628c0-.552.448-1 1-1h17.98c.552 0 1 .448 1 1v21.628 30 24.756c0 .552-.448 1-1 1zm33.981-1v-16.256c0-.552.448-1 1-1h17.981c.552 0 1 .448 1 1v16.256c0 .552-.448 1-1 1h-17.981c-.553 0-1-.448-1-1z" fill="#5f6c75"/><path d="m308.458 241.567v12c0 4.14-3.36 7.5-7.5 7.5h-104.94c-4.14 0-7.5-3.36-7.5-7.5v-158.51c0-6.9 5.61-12.5 12.5-12.5h10c-6.89 0-12.5 5.6-12.5 12.5v143.51c0 1.66 1.34 3 3 3z" fill="#4e5a61"/><path d="m192.595 272.891 112.936-1.319c5.523 0 9.957-2.486 9.957-8.008v-3c0-5.523-4.477-10-10-10h-106.968-5.004c-5.523 0-10 4.477-10 10l-.922 2.328c.001 5.522 4.478 9.999 10.001 9.999z" fill="#5f6c75"/><path d="m315.52 261.561v2c0 5.52-4.48 10-10 10h-114c-5.52 0-10-4.48-10-10v-3c0-4.482 2.943-8.268 6.998-9.542.948-.298 4.009-5.362 5.055-5.362l4.947 4.904v1c0 5.52 4.48 10 10 10z" fill="#4e5a61"/></g></svg>