<svg id="Capa_1" enable-background="new 0 0 497 497" height="512" viewBox="0 0 497 497" width="512" xmlns="http://www.w3.org/2000/svg"><g><path d="m419.074 448.223-381.361-1.763c-5.523 0-10-4.477-10-10l.681-51.003c0-5.523 4.477-10 10-10l6.026-1.751h40.337l160.147-10.933 181.111 10.933c5.523 0 10 4.477 10 10v47.754l-6.94 6.763c-.001 5.523-4.478 10-10.001 10z" fill="#94d4a2"/><g fill="#7fcb8f"><path d="m436.01 431.46v10c0 5.523-4.477 10-10 10h-45.684l-17.426-6.768-17.426 6.768h-225.866l-17.426-11.534-17.425 11.534h-50.337c-5.52 0-10-4.47-10-10v-57.75c0-5.53 4.48-10 10-10h10v51.75c0 3.314 2.686 6 6 6z"/><path d="m119.608 451.464-17.423-8.134-17.428 8.134v-77.758h34.851z"/><path d="m380.326 451.464-17.425-6.773-17.426 6.773v-77.758h34.851z"/></g><path d="m84.76 431.46h34.85v20h-34.85z" fill="#71bf7e"/><path d="m345.47 431.46h34.86v20h-34.86z" fill="#71bf7e"/><path d="m286.931 420.085h-108.779c-4.143 0-7.5-3.358-7.5-7.5s3.357-7.5 7.5-7.5h108.778c4.143 0 7.5 3.358 7.5 7.5s-3.357 7.5-7.499 7.5z" fill="#7fcb8f"/><path d="m456.136 368.71h-379.466c-5.523 0-10-4.477-10-10l-.149-87.635c0-5.523-.261-10.583 5.262-10.583l185.376-17.672 126.008 20.245 24.045-2.572h56.164c5.523 0 10 4.477 10 10v83.219l-7.24 5c0 5.521-4.477 9.998-10 9.998z" fill="#b78c7a"/><path d="m473.38 353.71v10c0 5.52-4.48 10-10 10h-56.168l-20.2-10-20.2 10h-201.011l-21.663-5.614-18.736 5.614h-53.622c-5.52 0-10-4.48-10-10v-93.22c0-5.52 4.48-10 10-10h10v87.22c0 3.31 2.69 6 6 6z" fill="#ab7b64"/><path d="m165.801 373.706-20.401-9.996-19.998 9.996v-113.215h40.399z" fill="#ab7b64"/><path d="m407.212 373.706-20.2-9.996-20.199 9.996v-113.215h40.399z" fill="#ab7b64"/><path d="m125.4 353.71h40.4v20h-40.4z" fill="#9a6a53"/><path d="m366.81 353.71h40.4v20h-40.4z" fill="#9a6a53"/><path d="m314.048 324.599h-92.937c-4.143 0-7.5-3.358-7.5-7.5s3.357-7.5 7.5-7.5h92.937c4.143 0 7.5 3.358 7.5 7.5s-3.358 7.5-7.5 7.5z" fill="#ab7b64"/><path d="m480.541 169.694c-1.223.984-5.733-1.258-12.106-1.258-6.374 0-10.483 2.242-11.706 1.258-5.197 12.81-10.393 25.62-15.59 38.43-3.097 7.634 2.467 15.999 10.64 15.999h33.711c8.174 0 13.737-8.366 10.64-15.999z" fill="#ffe07d"/><path d="m485.49 224.12h-33.71c-8.17 0-13.74-8.36-10.64-16 5.2-12.81 10.39-25.62 15.59-38.43 1.22.99 5.325-1.254 11.705-1.254 1.48 0 3.055 5.294 4.305 5.004l-11.475 27.771c-1.36 3.292 1.059 6.909 4.621 6.909h30.244c3.1 7.64-2.47 16-10.64 16z" fill="#ffd064"/><path d="m468.636 162.114c-4.143 0-7.5-3.358-7.5-7.5v-93.29c0-4.142 3.357-7.5 7.5-7.5s7.5 3.358 7.5 7.5v93.291c0 4.141-3.358 7.499-7.5 7.499z" fill="#f5fcff"/><path d="m392.95 189.42-137.824 22.591-137.826-22.591 8.1-44.57 115.249-18.116 144.201 18.116z" fill="#ffe07d"/><path d="m384.85 144.85h-259.45l11.62-64.49h236.2l2.09 11.54z" fill="#5f6c75"/><path d="m145.4 144.85-8.1 44.57h-20l8.1-44.57 10.823-12.244z" fill="#ffd064"/><path d="m376.83 100.35-1.52-8.45-2.09-11.54-126.699-11.073-109.501 11.073-11.62 64.49h20l7.277-40.387c.429-2.381 2.501-4.113 4.921-4.113z" fill="#4e5a61"/><path d="m476.14 61.32v39.03h-15v-39.03c0-4.14 3.35-7.5 7.5-7.5 4.14 0 7.5 3.36 7.5 7.5z" fill="#e6f7fe"/><path d="m476.013 45.536h-441.774c-2.761 0-5 2.239-5 5v24.809c0 2.761 2.239 5 5 5h441.774c2.761 0 5-2.239 5-5v-24.809c0-2.761-2.239-5-5-5z" fill="#5f6c75"/><path d="m55.63 80.35h-21.39c-2.76 0-5-2.24-5-5v-24.81c0-2.77 2.24-5 5-5h21.38c-.86.99-1.38 2.32-1.38 3.79v27.23c0 1.48.53 2.81 1.39 3.79z" fill="#4e5a61"/><path d="m487.74 154.614c0-10.65-8.553-19.284-19.104-19.284-1.268 0-2.508.125-3.707.363-8.777 1.742-12.024 9.737-12.024 19.107 0 10.65 5.18 14.657 15.731 14.657 9.218 0 16.912-2.149 18.708-10.917.259-1.267.396-2.58.396-3.926z" fill="#ffe07d"/><path d="m487.34 158.54c-1.79 8.77-9.48 15.36-18.7 15.36-10.56 0-19.11-8.64-19.11-19.29 0-9.37 6.62-17.17 15.4-18.91-.26 1.26-.4 2.57-.4 3.91 0 10.65 8.55 19.29 19.11 19.29 1.27 0 2.51-.12 3.7-.36z" fill="#ffd064"/><path d="m392.949 255.49-372.598-1.99c-5.523 0-10-4.477-10-10l-6.638-41.533c0-5.523 4.477-10 10-10l6.287-2.545h31.469l22.712 7.545 17.687-7.545h224.231l21.571 7.545 18.828-7.545h41.257c5.523 0 10 4.477 10 10v41.068l-4.806 5c0 5.523-4.477 10-10 10z" fill="#f5fcff"/><path d="m407.76 240.49v10c0 5.523-4.477 10-10 10h-41.262l-20.198-10-20.201 10h-224.231l-20.2-5-20.2 5h-41.468c-5.523 0-10-4.477-10-10v-51.07c0-5.523 4.477-10 10-10h10v45.07c0 3.314 2.686 6 6 6z" fill="#e6f7fe"/><path d="m356.498 260.491-20.198-7.8-20.201 7.8v-71.069h40.399z" fill="#e6f7fe"/><path d="m91.868 260.491-21.942-7.459-18.457 7.459v-71.069h40.399z" fill="#e6f7fe"/><path d="m316.1 240.49h40.4v20h-40.4z" fill="#d3effd"/><path d="m51.47 240.49h40.4v20h-40.4z" fill="#d3effd"/></g></svg>