<svg id="Capa_1" enable-background="new 0 0 512 512" height="512" viewBox="0 0 512 512" width="512" xmlns="http://www.w3.org/2000/svg"><g id="_x3C_Group_x3E__45_"><path d="m291.5 421.422-36.628 9.073-34.372-9.073 10-43.566h51z" fill="#ab7b64"/><path d="m308.831 421.422h-105.662c-2.378 0-4.686.299-6.889.862 0 0-9.472 9.987-9.472 22.935l-4.335 1.729c0 5.109 4.141 9.25 9.25 9.25l132.085 2.043c5.109 0 9.25-4.141 9.25-9.25v-2c0-3.059 3.027-3.821 2.113-6.573-3.666-11.037-14.074-18.996-26.34-18.996z" fill="#b78c7a"/><path d="m336.58 449.171v2c0 5.11-4.14 9.25-9.25 9.25h-142.66c-5.11 0-9.25-4.14-9.25-9.25v-2c0-12.94 8.87-23.83 20.86-26.89-.56 2.2-.86 4.51-.86 6.89v2c0 5.11 4.14 9.25 9.25 9.25h130.49c.93 2.75 1.42 5.69 1.42 8.75z" fill="#ab7b64"/><path d="m504.5 335.021v22.84c0 11.04-8.95 20-20 20h-457c-11.05 0-20-8.96-20-20v-22.84l240.904-25.376z" fill="#b78c7a"/><path d="m504.5 79.081v255.94h-497v-255.94c0-11.05 8.95-20 20-20h457c11.05 0 20 8.95 20 20z" fill="#f5fcff"/><path d="m504.47 358.861c-.52 10.58-9.26 19-19.97 19h-457c-11.05 0-20-8.96-20-20v-22.84l12.138-21.21 6.862 21.21v15.84c0 4.41 3.59 8 8 8z" fill="#ab7b64"/><path d="m26.5 59.111v275.91h-19v-255.94c0-10.71 8.42-19.45 19-19.97z" fill="#e6f7fe"/><path d="m484.5 385.356h-457c-15.164 0-27.5-12.336-27.5-27.5v-278.777c0-15.164 12.336-27.5 27.5-27.5h457c15.164 0 27.5 12.336 27.5 27.5v278.776c0 15.164-12.336 27.501-27.5 27.501zm-457-318.777c-6.893 0-12.5 5.607-12.5 12.5v278.776c0 6.893 5.607 12.5 12.5 12.5h457c6.893 0 12.5-5.607 12.5-12.5v-278.776c0-6.893-5.607-12.5-12.5-12.5z" fill="#9a6a53"/><path d="m278.851 297.947h-53.255l-63.429-9.068-62.273 9.068h-41.344l-5-8.861c-5.523 0-10-4.477-10-10l-2.465-167.305c0-5.523 4.477-10 10-10l7.465-5.626h220.301c5.523 0 10 4.477 10 10v181.792c0 5.522-4.477 10-10 10z" fill="#bed9fd"/><path d="m58.55 96.151v201.8h-10c-5.52 0-10-4.48-10-10v-181.8c0-5.52 4.48-10 10-10z" fill="#9ec8fc"/><path d="m473.45 106.151v153.62l-89.556 12.767-62.809-12.787.445-150.787c0-5.52 4.48-10 10-10l2.5-2.813h129.42c5.52 0 10 4.48 10 10z" fill="#bed9fd"/><path d="m322.447 267.389-3.417-7.618v-153.62c0-5.523 4.477-10 10-10h5v163.62l-2.392 6.597z" fill="#9ec8fc"/><g><g><path d="m442.71 170.37h-93.649c-4.142 0-7.5-3.358-7.5-7.5s3.358-7.5 7.5-7.5h93.649c4.142 0 7.5 3.358 7.5 7.5s-3.358 7.5-7.5 7.5z" fill="#f5fcff"/></g><g><path d="m442.71 230.732h-93.649c-4.142 0-7.5-3.358-7.5-7.5s3.358-7.5 7.5-7.5h93.649c4.142 0 7.5 3.358 7.5 7.5s-3.358 7.5-7.5 7.5z" fill="#f5fcff"/></g><g><path d="m399.508 140.189h-50.447c-4.142 0-7.5-3.358-7.5-7.5s3.358-7.5 7.5-7.5h50.447c4.142 0 7.5 3.358 7.5 7.5s-3.358 7.5-7.5 7.5z" fill="#f5fcff"/></g><g><path d="m399.508 200.551h-50.447c-4.142 0-7.5-3.358-7.5-7.5s3.358-7.5 7.5-7.5h50.447c4.142 0 7.5 3.358 7.5 7.5s-3.358 7.5-7.5 7.5z" fill="#f5fcff"/></g></g><path d="m473.45 259.771v28.18c0 5.52-4.48 10-10 10h-134.42c-5.52 0-10-4.48-10-10v-28.18l2.906 4.682 12.094-4.682z" fill="#5f6c75"/><path d="m473.45 282.951v5c0 5.52-4.48 10-10 10h-134.42c-5.52 0-10-4.48-10-10v-28.18h15v17.18c0 3.31 2.69 6 6 6z" fill="#4e5a61"/><path d="m181.75 246.751 26.754 10.375c8.239 3.195 14.092 10.613 15.283 19.37l2.891 21.255h-126.357l2.891-21.255c1.191-8.756 7.044-16.175 15.283-19.37l26.754-10.375z" fill="#d5717f"/><path d="m197.77 252.971c-5.09 4.15-10.67 7.42-16.62 9.64-5.85 2.19-12.06 3.36-18.49 3.36-6.11 0-12.02-1.06-17.62-3.05l-21.12 8.19c-3.15 1.22-5.39 4.06-5.84 7.41l-2.04 19.23h-15.72l2.89-21.26c1.19-8.75 7.05-16.17 15.29-19.36l9.61-3.73 17.14-6.65h36.5z" fill="#cd5668"/><path d="m113.346 187.636c1.091 35.226 22.751 63.336 49.311 63.336 26.6 0 48.285-28.194 49.316-63.494l-49.807-41.238z" fill="#f7e5c1"/><path d="m211.97 187.481c-.15 5.08-.72 10.01-1.68 14.73-17.983-1.5-27.05-11.553-33.029-19.664-1.034-1.403-3.033-1.616-4.359-.485-13.705 11.695-30.331 16.737-43.122 18.879 4.77 25.56 20.65 45.23 40.36 49.27-2.44.5-4.94.76-7.48.76-22.71 0-41.84-20.56-47.58-48.54-.98-4.74-1.57-9.69-1.73-14.79l48.82-41.4 7.59 6.28z" fill="#f4d9b1"/><path d="m209.106 145.771c-1.991-2.369-7.479-8.9-17.256-11.312-3.622-.894-6.984-1.013-9.867-.776-5.899.484-11.813-.267-17.503-1.899-6.107-1.751-14.588-2.916-24.192-.56-4.247 1.042-17.311 4.853-26.45 17.633-10.24 14.319-6.73 29.95-4.974 36.187.405 1.438 1.705 2.434 3.199 2.435 14.657.009 37.838-4.073 53.301-18.811 6.422-6.121 16.824-5.055 21.96 2.179 6.404 9.02 11.908 15.7 25.175 16.484 1.604.095 3.033-1.002 3.402-2.566 1.655-6.992 4.557-25.485-6.795-38.994z" fill="#5f6c75"/><path d="m174.421 164.706-.781-.196c-8.714-2.189-17.876-.662-25.602 3.925-4.646 2.758-9.586 4.889-14.54 6.512-1.858.608-3.809-.73-3.903-2.683-.372-7.717.984-17.305 7.494-26.404 5.84-8.17 13.17-12.94 19.13-15.7-4.71-.5-10.12-.36-15.93 1.06-4.25 1.05-17.31 4.86-26.45 17.64-7.907 11.057-7.615 22.891-6.266 30.58-.001 0-.003 0-.004 0 .819 2.857.55 7.884 4.49 8.04 6.604-.011 13.329-.775 19.82-2.19 0 0 0-.001-.001-.002 11.563-2.531 23.979-7.56 33.481-16.618 2.581-2.455 5.8-3.755 9.062-3.964z" fill="#4e5a61"/></g></svg>