<svg width="325" height="294" viewBox="0 0 325 294" fill="none" xmlns="http://www.w3.org/2000/svg">
<path d="M66.9996 96.0001L163 129.5L163 262L66.9996 228.5L66.9996 96.0001Z" fill="#8C8C8C"/>
<path d="M163 68.0002L258.5 96L163 129.5L66.9996 96.0001L163 68.0002Z" fill="#CBCBCB"/>
<path d="M258.5 96.0001L163 129.5L162.999 262L258.5 228.5L258.5 96.0001Z" fill="#5B5B5B"/>
<path d="M163 71L249.001 96.0002L163 126L77.0001 96.0003L163 71Z" fill="#7D7D7D"/>
<path d="M163 71L77 96.0003L81.6909 97.6366L163 74V71Z" fill="#2E2E2E"/>
<path d="M249.001 96.0002L163 71V74L244.31 97.6366L249.001 96.0002Z" fill="#545454"/>
<path d="M172 220.073V196.61L250.5 169.073V192.537L172 220.073Z" fill="#1B1B1B"/>
<path d="M250.5 169.073L172 196.61L170.5 196.092L169 195.573L247.5 168.037L250.5 169.073Z" fill="#464646"/>
<path d="M172 220.073V196.61L169 195.573V219.037L172 220.073Z" fill="#262626"/>
<path d="M174 208.573V216.073L191.5 209.935V202.435L174 208.573Z" fill="#7A7A7A"/>
<path d="M193.895 201.5V209L211 203V195.5L193.895 201.5Z" fill="#7A7A7A"/>
<path d="M174 198.016V205.516L189.619 200.037V192.537L174 198.016Z" fill="#7A7A7A"/>
<path d="M177 198.414V203.037L187 199.659V195.037L177 198.414Z" fill="#57C3FF"/>
<path d="M213.5 194.537V202.037L230 196.11V188.61L213.5 194.537Z" fill="#7A7A7A"/>
<path d="M231.794 188V195.5L248.5 189.5V182L231.794 188Z" fill="#7A7A7A"/>
<path d="M194 191.5V199L248.5 179.882V172.382L194 191.5Z" fill="#979797"/>
<path d="M188.659 197.417C188.476 197.905 188.031 198.189 187.664 198.052C187.297 197.915 187.148 197.408 187.331 196.92C187.514 196.432 187.959 196.148 188.326 196.285C188.693 196.423 188.842 196.93 188.659 197.417Z" fill="black"/>
<path d="M176.659 201.417C176.476 201.905 176.031 202.189 175.664 202.052C175.297 201.915 175.148 201.408 175.331 200.92C175.514 200.432 175.959 200.148 176.326 200.285C176.693 200.423 176.842 200.93 176.659 201.417Z" fill="black"/>
<path d="M172 251.11V227.647L250.5 200.11V223.573L172 251.11Z" fill="#1B1B1B"/>
<path d="M250.5 200.11L172 227.647L170.5 227.128L169 226.61L247.5 199.073L250.5 200.11Z" fill="#464646"/>
<path d="M172 251.11V227.647L169 226.61V250.073L172 251.11Z" fill="#262626"/>
<g filter="url(#filter0_d)">
<path d="M219.961 227.358C218.257 231.905 214.106 234.553 210.688 233.273C207.271 231.992 205.881 227.268 207.584 222.721C209.288 218.174 213.439 215.526 216.857 216.806C220.275 218.087 221.664 222.811 219.961 227.358Z" fill="black"/>
<path d="M219.493 227.182C218.675 229.364 217.277 231.072 215.698 232.079C214.12 233.086 212.393 233.377 210.864 232.804C209.335 232.232 208.224 230.877 207.696 229.081C207.167 227.285 207.235 225.078 208.053 222.897C208.87 220.715 210.269 219.007 211.847 218C213.425 216.993 215.153 216.702 216.682 217.275C218.21 217.847 219.321 219.203 219.85 220.998C220.378 222.794 220.31 225.001 219.493 227.182Z" stroke="white"/>
</g>
<g filter="url(#filter1_d)">
<path d="M194.461 236.358C192.757 240.905 188.606 243.553 185.188 242.273C181.771 240.992 180.381 236.268 182.084 231.721C183.788 227.174 187.939 224.526 191.357 225.806C194.775 227.087 196.164 231.811 194.461 236.358Z" fill="black"/>
<path d="M193.993 236.182C193.175 238.364 191.777 240.072 190.198 241.079C188.62 242.086 186.892 242.377 185.364 241.804C183.835 241.232 182.724 239.877 182.196 238.081C181.667 236.285 181.735 234.078 182.553 231.897C183.37 229.715 184.769 228.007 186.347 227C187.925 225.993 189.653 225.702 191.182 226.275C192.71 226.847 193.821 228.203 194.35 229.998C194.878 231.794 194.81 234.001 193.993 236.182Z" stroke="white"/>
</g>
<g filter="url(#filter2_d)">
<path d="M243.922 218.943C242.218 223.49 238.067 226.138 234.649 224.858C231.231 223.577 229.842 218.853 231.545 214.306C233.249 209.759 237.4 207.111 240.818 208.392C244.236 209.672 245.625 214.396 243.922 218.943Z" fill="black"/>
<path d="M243.454 218.768C242.636 220.949 241.238 222.657 239.659 223.664C238.081 224.671 236.353 224.962 234.825 224.39C233.296 223.817 232.185 222.462 231.656 220.666C231.128 218.87 231.196 216.664 232.014 214.482C232.831 212.3 234.229 210.592 235.808 209.585C237.386 208.579 239.114 208.287 240.643 208.86C242.171 209.433 243.282 210.788 243.811 212.583C244.339 214.379 244.271 216.586 243.454 218.768Z" stroke="white"/>
</g>
<path d="M214 217.073V225.073V232.573" stroke="white"/>
<path d="M182 236.573L194.5 232.073M207.5 227.573L220 223.073M231.5 219.073L244 214.573" stroke="white"/>
<path d="M188.5 226.073V234.073V241.573" stroke="white"/>
<path d="M238 208.823V216.823V224.323" stroke="white"/>
<path d="M172 189.037V165.573L250.5 138.037V161.5L172 189.037Z" fill="#1B1B1B"/>
<path d="M250.5 138.037L172 165.573L170.5 165.055L169 164.537L247.5 137L250.5 138.037Z" fill="#464646"/>
<path d="M172 189.037V165.573L169 164.537V188L172 189.037Z" fill="#262626"/>
<path d="M174 168L174 171.219L188.253 166.219L188.253 163L174 168Z" fill="#FF0000"/>
<path d="M174 173L174 176.095L188.253 171.095L188.253 168L174 173Z" fill="#0AFF22"/>
<path d="M174 177.767V180.878L188.253 175.878L188.253 172.768L174 177.767Z" fill="#0AFF22"/>
<path d="M174 182.69L174 185.5L188.253 180.5L188.253 177.69L174 182.69Z" fill="#FF0000"/>
<path d="M190 162.5V170L248.44 149.5V142L190 162.5Z" fill="#979797"/>
<path d="M190 172.5V180L248.44 159.5V152L190 172.5Z" fill="#686868"/>
<path d="M172 158V134.537L250.5 107V130.463L172 158Z" fill="#1B1B1B"/>
<path d="M250.5 107L172 134.537L170.5 134.018L169 133.5L247.5 105.963L250.5 107Z" fill="#464646"/>
<path d="M172 158V134.537L169 133.5V156.963L172 158Z" fill="#262626"/>
<path d="M174 136.5V144L232.44 123.5V116L174 136.5Z" fill="#979797"/>
<path d="M235 115L235 118.219L249.253 113.219L249.253 110L235 115Z" fill="#0AFF22"/>
<path d="M235 120L235 123.095L249.253 118.095L249.253 115L235 120Z" fill="#0AFF22"/>
<path d="M235 124.767V127.878L249.253 122.878L249.253 119.768L235 124.767Z" fill="#FF0000"/>
<path d="M235 129.69L235 132.5L249.253 127.5L249.253 124.69L235 129.69Z" fill="#0AFF22"/>
<path d="M174 146.5V154L232.44 133.5V126L174 146.5Z" fill="#616161"/>
<path d="M75.5 104.5L157.5 133.081L157.5 251.272L75.5 222.648L75.5 104.5Z" fill="#443F3F"/>
<path d="M75.5 112.5L75.5 104.5L157.5 133L157.5 141L75.5 112.5Z" fill="#D9D9D9"/>
<path d="M71.5 224.5L75.5 222.653V104.5L71.5 103V224.5Z" fill="#282828"/>
<path d="M71.5 224.5L75.5 222.653L157.5 251.266V254.5L71.5 224.5Z" fill="#B6B6B6"/>
<path d="M80.4932 118.335L121.432 132.604L121.432 191.612L80.4932 177.321L80.4932 118.335Z" fill="#E6E6E6"/>
<path d="M80.4932 118.335L121.432 132.604V148.291L80.4932 134L80.4932 118.335Z" fill="#50B5FF"/>
<path d="M80.5396 182.732L153.045 207.774L153.045 242.874L80.5396 217.811L80.5396 182.732Z" fill="#E6E6E6"/>
<path d="M82.7202 186.505L127.036 201.811V230.819L82.7202 215.5L82.7202 186.505Z" fill="#5713EA"/>
<path d="M105.5 197.5L124 203.945L124 213.449L105.5 207L105.5 197.5Z" fill="#EBEBEB"/>
<path d="M101 207.633L124 215.5L124 227.871L101 220L101 207.633Z" fill="#EBEBEB"/>
<path d="M85 190.5L104 197V206.371L85 199.5L85 190.5Z" fill="#EBEBEB"/>
<path d="M85.1838 202L99.5 207.129L99.5 219.449L85.1838 214.5L85.1838 202Z" fill="#EBEBEB"/>
<path d="M132.485 225.068L151.025 231.472L151.025 240.447L132.485 234.038L132.485 225.068Z" fill="#57C3FF"/>
<path d="M132.485 225.068L151.025 231.472L151.025 240.447L132.485 234.038L132.485 225.068Z" fill="#57C3FF"/>
<path d="M132.485 203.068L151.025 209.472L151.025 218.447L132.485 212.038L132.485 203.068Z" fill="#57C3FF"/>
<path d="M132.485 203.068L151.025 209.472L151.025 218.447L132.485 212.038L132.485 203.068Z" fill="#57C3FF"/>
<path d="M127 134.86L153.007 143.925L153.007 202.933L127 193.846L127 134.86Z" fill="#E6E6E6"/>
<path d="M126.993 166.849L153 175.914L153 194L126.993 184.914L126.993 166.849Z" fill="#363636"/>
<path d="M127 149.935L153.007 159L153.007 176L127 166.914V149.935Z" fill="#EAB600"/>
<path d="M127 134.86L153.007 143.925L153 159L126.993 149.914L127 134.86Z" fill="#FF5050"/>
<path d="M127 184.935L153.007 194L153.007 203.086L127 194L127 184.935Z" fill="#E5E5E5"/>
<path d="M132.485 214.068L151.025 220.472L151.025 229.447L132.485 223.038L132.485 214.068Z" fill="#57C3FF"/>
<path d="M132.485 214.068L151.025 220.472L151.025 229.447L132.485 223.038L132.485 214.068Z" fill="#57C3FF"/>
<path d="M117.968 136.333L83.3643 124.271M117.968 139.561L83.3643 127.5M117.968 143.061L83.3643 131" stroke="#363636" stroke-width="0.5" stroke-linecap="round" stroke-linejoin="round"/>
<path d="M153.728 135.272L89.9556 113.044" stroke="black" stroke-width="0.4" stroke-linecap="round" stroke-linejoin="round" stroke-dasharray="10 10"/>
<path d="M108.5 149.283L86.3354 141.576M108.5 152.026L86.3354 144.319M108.5 155L86.3354 147.293M115.736 160.747L86.3354 150.5M115.736 164.247L86.3354 154M115.736 167.788L86.3354 157.54M115.736 170.995L86.3354 160.747M115.736 174.495L86.3354 164.247" stroke="#656565" stroke-width="0.5" stroke-linecap="round" stroke-linejoin="round"/>
<path d="M110.25 155.82L110.25 149.847L115.75 151.68L115.75 157.653L110.25 155.82Z" stroke="#656565" stroke-width="0.5" stroke-linejoin="round"/>
<path d="M81.7674 113.215L81.7674 107.745L86.7517 109.568L86.7517 114.955L81.7674 113.215Z" stroke="black" stroke-width="0.7" stroke-linejoin="round"/>
<path d="M149.145 213.212L134 207.933" stroke="#454545" stroke-width="0.5" stroke-linecap="round" stroke-linejoin="round"/>
<path d="M149.145 224.212L134 218.933" stroke="#454545" stroke-width="0.5" stroke-linecap="round" stroke-linejoin="round"/>
<path d="M149.145 235.212L134 229.933" stroke="#454545" stroke-width="0.5" stroke-linecap="round" stroke-linejoin="round"/>
<defs>
<filter id="filter0_d" x="205.857" y="216.484" width="14.8317" height="17.111" filterUnits="userSpaceOnUse" color-interpolation-filters="sRGB">
<feFlood flood-opacity="0" result="BackgroundImageFix"/>
<feColorMatrix in="SourceAlpha" type="matrix" values="0 0 0 0 0 0 0 0 0 0 0 0 0 0 0 0 0 0 127 0"/>
<feOffset dx="-1"/>
<feColorMatrix type="matrix" values="0 0 0 0 0 0 0 0 0 0 0 0 0 0 0 0 0 0 1 0"/>
<feBlend mode="normal" in2="BackgroundImageFix" result="effect1_dropShadow"/>
<feBlend mode="normal" in="SourceGraphic" in2="effect1_dropShadow" result="shape"/>
</filter>
<filter id="filter1_d" x="180.357" y="225.484" width="14.8317" height="17.111" filterUnits="userSpaceOnUse" color-interpolation-filters="sRGB">
<feFlood flood-opacity="0" result="BackgroundImageFix"/>
<feColorMatrix in="SourceAlpha" type="matrix" values="0 0 0 0 0 0 0 0 0 0 0 0 0 0 0 0 0 0 127 0"/>
<feOffset dx="-1"/>
<feColorMatrix type="matrix" values="0 0 0 0 0 0 0 0 0 0 0 0 0 0 0 0 0 0 1 0"/>
<feBlend mode="normal" in2="BackgroundImageFix" result="effect1_dropShadow"/>
<feBlend mode="normal" in="SourceGraphic" in2="effect1_dropShadow" result="shape"/>
</filter>
<filter id="filter2_d" x="229.818" y="208.069" width="14.8317" height="17.111" filterUnits="userSpaceOnUse" color-interpolation-filters="sRGB">
<feFlood flood-opacity="0" result="BackgroundImageFix"/>
<feColorMatrix in="SourceAlpha" type="matrix" values="0 0 0 0 0 0 0 0 0 0 0 0 0 0 0 0 0 0 127 0"/>
<feOffset dx="-1"/>
<feColorMatrix type="matrix" values="0 0 0 0 0 0 0 0 0 0 0 0 0 0 0 0 0 0 1 0"/>
<feBlend mode="normal" in2="BackgroundImageFix" result="effect1_dropShadow"/>
<feBlend mode="normal" in="SourceGraphic" in2="effect1_dropShadow" result="shape"/>
</filter>
</defs>
</svg>
